<svg width="171" height="45" viewBox="0 0 171 45" fill="none" xmlns="http://www.w3.org/2000/svg">
<path d="M19.1152 0.399998H25.9312V34.048H20.6032V4.912H19.9312C19.3552 4.912 18.8432 4.976 18.3952 5.104C17.9472 5.2 17.5632 5.44 17.2432 5.824C16.9552 6.176 16.6832 6.752 16.4272 7.552L10.7632 27.136C10.2512 28.928 9.70719 30.352 9.13119 31.408C8.55519 32.432 7.83519 33.232 6.97119 33.808C6.13919 34.352 5.01919 34.784 3.61119 35.104L0.923188 32.56C1.56319 32.208 2.10719 31.888 2.55519 31.6C3.03519 31.312 3.46719 30.896 3.85119 30.352C4.23519 29.776 4.58719 28.944 4.90719 27.856L11.1952 7.312C11.4192 6.544 11.6912 5.76 12.0112 4.96C12.3312 4.128 12.7632 3.376 13.3072 2.704C13.8832 2 14.6352 1.44 15.5632 1.024C16.4912 0.607998 17.6752 0.399998 19.1152 0.399998ZM46.6743 25.12C46.6743 27.936 45.9543 30.208 44.5143 31.936C43.0743 33.632 40.8823 34.48 37.9383 34.48C35.8263 34.48 34.0983 34.048 32.7543 33.184C31.4423 32.288 30.4663 31.136 29.8263 29.728C29.2183 28.288 28.9143 26.752 28.9143 25.12V18.784C28.9143 16.736 29.2503 15.024 29.9223 13.648C30.6263 12.272 31.6503 11.232 32.9943 10.528C34.3383 9.792 35.9863 9.424 37.9383 9.424C40.7223 9.424 42.8663 10.256 44.3703 11.92C45.9063 13.552 46.6743 15.84 46.6743 18.784V25.12ZM41.2503 18.496C41.2503 17.728 41.1223 17.072 40.8663 16.528C40.6103 15.952 40.2263 15.52 39.7143 15.232C39.2343 14.912 38.6263 14.752 37.8903 14.752C37.1223 14.752 36.4663 14.896 35.9223 15.184C35.4103 15.472 35.0103 15.888 34.7223 16.432C34.4343 16.976 34.2903 17.664 34.2903 18.496V25.504C34.2903 26.144 34.4023 26.752 34.6263 27.328C34.8823 27.904 35.2823 28.368 35.8263 28.72C36.3703 29.072 37.0583 29.248 37.8903 29.248C38.6903 29.248 39.3303 29.088 39.8103 28.768C40.3223 28.448 40.6903 28 40.9143 27.424C41.1383 26.848 41.2503 26.208 41.2503 25.504V18.496ZM49.9199 10H63.1199V15.28H55.2959V34H49.9199V10ZM82.6743 25.12C82.6743 27.936 81.9543 30.208 80.5143 31.936C79.0743 33.632 76.8823 34.48 73.9383 34.48C71.8263 34.48 70.0983 34.048 68.7543 33.184C67.4423 32.288 66.4663 31.136 65.8263 29.728C65.2183 28.288 64.9143 26.752 64.9143 25.12V18.784C64.9143 16.736 65.2503 15.024 65.9223 13.648C66.6263 12.272 67.6503 11.232 68.9943 10.528C70.3383 9.792 71.9863 9.424 73.9383 9.424C76.7223 9.424 78.8663 10.256 80.3703 11.92C81.9063 13.552 82.6743 15.84 82.6743 18.784V25.12ZM77.2503 18.496C77.2503 17.728 77.1223 17.072 76.8663 16.528C76.6103 15.952 76.2263 15.52 75.7143 15.232C75.2343 14.912 74.6263 14.752 73.8903 14.752C73.1223 14.752 72.4663 14.896 71.9223 15.184C71.4103 15.472 71.0103 15.888 70.7223 16.432C70.4343 16.976 70.2903 17.664 70.2903 18.496V25.504C70.2903 26.144 70.4023 26.752 70.6263 27.328C70.8823 27.904 71.2823 28.368 71.8263 28.72C72.3703 29.072 73.0583 29.248 73.8903 29.248C74.6903 29.248 75.3303 29.088 75.8103 28.768C76.3223 28.448 76.6903 28 76.9143 27.424C77.1383 26.848 77.2503 26.208 77.2503 25.504V18.496ZM101.712 34V5.68H91.6319V34H86.3039V0.399998H107.04V34H101.712ZM114.654 44.032L118.206 34L110.046 10H115.614L120.846 26.464L126.75 10H131.886L119.742 44.032H114.654ZM144.033 26.896C144.033 27.696 144.129 28.384 144.321 28.96C144.513 29.536 144.833 30.016 145.281 30.4C145.729 30.752 146.321 31.056 147.057 31.312L144.801 34.96C143.841 34.704 142.977 34.368 142.209 33.952C141.473 33.504 140.849 32.976 140.337 32.368C139.825 31.728 139.425 31.008 139.137 30.208C138.881 29.408 138.753 28.544 138.753 27.616V14.944H134.241V9.952H148.833V14.944H144.033V26.896ZM162.434 19.456C163.874 19.456 165.218 19.712 166.466 20.224C167.746 20.704 168.786 21.488 169.586 22.576C170.386 23.632 170.786 25.024 170.786 26.752C170.786 28 170.482 29.216 169.874 30.4C169.266 31.552 168.338 32.512 167.09 33.28C165.842 34.048 164.258 34.432 162.338 34.432C161.73 34.432 160.994 34.416 160.13 34.384C159.298 34.352 158.418 34.304 157.49 34.24C156.562 34.176 155.682 34.112 154.85 34.048C154.05 34.016 153.394 33.984 152.882 33.952C152.402 33.92 152.162 33.904 152.162 33.904V10H157.49V19.456H162.434ZM161.426 29.008C162.162 29.008 162.802 28.944 163.346 28.816C163.922 28.656 164.37 28.4 164.69 28.048C165.042 27.696 165.218 27.216 165.218 26.608C165.218 26.224 165.138 25.888 164.978 25.6C164.85 25.312 164.642 25.072 164.354 24.88C164.066 24.688 163.714 24.56 163.298 24.496C162.914 24.4 162.482 24.352 162.002 24.352H157.49V28.912C157.874 28.912 158.242 28.928 158.594 28.96C158.978 28.96 159.33 28.976 159.65 29.008C160.002 29.008 160.322 29.008 160.61 29.008C160.93 29.008 161.202 29.008 161.426 29.008Z" fill="#173A56"/>
</svg>
