<?xml version="1.0" standalone="no"?>
<!DOCTYPE svg PUBLIC "-//W3C//DTD SVG 20010904//EN"
 "http://www.w3.org/TR/2001/REC-SVG-20010904/DTD/svg10.dtd">
<svg version="1.0" xmlns="http://www.w3.org/2000/svg"
 width="30.000000pt" height="30.000000pt" viewBox="0 0 30.000000 30.000000"
 preserveAspectRatio="xMidYMid meet">

<g transform="translate(0.000000,30.000000) scale(0.100000,-0.100000)"
fill="#000000" stroke="none">
<path d="M111 257 c-69 -24 -98 -116 -54 -175 39 -53 134 -60 177 -13 80 89
-10 227 -123 188z m71 -54 c25 -22 24 -47 -2 -40 -18 5 -20 0 -20 -39 0 -24
-4 -44 -10 -44 -5 0 -10 20 -10 44 0 39 -2 44 -20 39 -25 -7 -26 13 -3 39 20
22 41 23 65 1z"/>
</g>
</svg>
