<svg width="575" height="35" viewBox="0 0 575 35" fill="none" xmlns="http://www.w3.org/2000/svg">
<path fill-rule="evenodd" clip-rule="evenodd" d="M574.775 11.1315C572.428 7.00541 552.268 5.26805 491.679 3.8203C435.145 2.44494 369.329 -1.53629 254.34 0.635332C166.444 2.30024 57.0011 8.95994 57.0011 12.6517C57.0011 15.33 61.2681 15.4024 102.016 13.0136C139.67 10.842 158.977 10.3353 182.551 9.7562C88.0422 15.4024 67.8814 19.094 17.5334 22.641C-14.0408 24.885 4.41306 31.3275 15.9334 30.676C16.04 30.676 162.924 22.5686 176.791 23.0029C178.071 23.0753 164.097 24.3783 145.644 25.8984C94.1222 30.2417 104.042 37.4803 142.657 34.1505C272.58 22.9305 394.823 19.4558 489.013 24.3058C518.773 25.8259 522.08 25.8259 522.08 23.9438C522.08 20.614 513.973 18.0806 501.28 17.5739C481.439 16.7052 405.064 14.244 370.503 13.5201C367.836 13.4477 369.116 12.0726 371.463 11.9278C385.543 10.9868 497.333 11.7104 541.281 12.7238C573.602 13.4477 575.948 13.3755 574.775 11.1315Z" fill="#FFA8A7"/>
</svg>
