<svg width="246" height="32" viewBox="0 0 246 32" fill="none" xmlns="http://www.w3.org/2000/svg">
<path fill-rule="evenodd" clip-rule="evenodd" d="M245.904 10.1774C244.9 6.40495 236.275 4.8165 210.353 3.49285C186.166 2.23538 158.009 -1.4046 108.813 0.580875C71.2091 2.10308 24.3866 8.19194 24.3866 11.5673C24.3866 14.016 26.2121 14.0822 43.6451 11.8982C59.7546 9.91269 68.0147 9.44941 78.1002 8.91995C37.6667 14.0822 29.0414 17.4574 7.50125 20.7003C-6.00701 22.752 1.88802 28.6423 6.81671 28.0467C6.86235 28.0467 69.7031 20.6342 75.6358 21.0312C76.1834 21.0974 70.2052 22.2887 62.3101 23.6786C40.2679 27.6495 44.5121 34.2677 61.0323 31.2233C116.617 20.965 168.916 17.7882 209.212 22.2224C221.945 23.6122 223.36 23.6122 223.36 21.8915C223.36 18.8471 219.891 16.5308 214.46 16.0675C205.972 15.2734 173.297 13.0231 158.511 12.3613C157.37 12.2951 157.918 11.0378 158.922 10.9054C164.945 10.0451 212.772 10.7066 231.574 11.6332C245.402 12.295 246.406 12.229 245.904 10.1774Z" fill="#FFA8A7"/>
</svg>
