<svg width="288" height="24" viewBox="0 0 288 24" fill="none" xmlns="http://www.w3.org/2000/svg">
<path fill-rule="evenodd" clip-rule="evenodd" d="M287.887 7.63302C286.712 4.80371 276.614 3.61237 246.267 2.61964C217.951 1.67653 184.986 -1.05345 127.391 0.435656C83.3668 1.57731 28.5501 6.14396 28.5501 8.67544C28.5501 10.512 30.6873 10.5616 51.0966 8.92363C69.9566 7.43452 79.6269 7.08706 91.4344 6.68997C44.0976 10.5617 33.9997 13.093 8.78195 15.5253C-7.03259 17.064 2.21037 21.4817 7.98054 21.035C8.03397 21.035 81.6037 15.4756 88.5493 15.7734C89.1904 15.8231 82.1914 16.7165 72.9484 17.7589C47.143 20.7371 52.1117 25.7008 71.4524 23.4175C136.527 15.7238 197.755 13.3411 244.932 16.6668C259.838 17.7092 261.494 17.7092 261.494 16.4186C261.494 14.1353 257.434 12.3981 251.076 12.0507C241.138 11.455 202.884 9.76731 185.574 9.27094C184.238 9.22131 184.879 8.27835 186.054 8.17907C193.107 7.53379 249.099 8.02997 271.111 8.72489C287.3 9.22126 288.475 9.17177 287.887 7.63302Z" fill="#FFA8A7"/>
</svg>
