<svg width="537" height="35" viewBox="0 0 537 35" fill="none" xmlns="http://www.w3.org/2000/svg">
<path fill-rule="evenodd" clip-rule="evenodd" d="M536.79 11.1315C534.598 7.00541 515.77 5.26805 459.186 3.8203C406.387 2.44494 344.922 -1.53629 237.531 0.635332C155.444 2.30024 53.2341 8.95994 53.2341 12.6517C53.2341 15.33 57.2191 15.4024 95.2739 13.0136C130.44 10.842 148.471 10.3353 170.487 9.7562C82.2237 15.4024 63.3953 19.094 16.3747 22.641C-13.1129 24.885 4.12141 31.3275 14.8804 30.676C14.98 30.676 152.157 22.5686 165.107 23.0029C166.303 23.0753 153.253 24.3783 136.018 25.8984C87.902 30.2417 97.1666 37.4803 133.229 34.1505C254.566 22.9305 368.731 19.4558 456.695 24.3058C484.489 25.8259 487.577 25.8259 487.577 23.9438C487.577 20.614 480.006 18.0806 468.152 17.5739C449.622 16.7052 378.294 14.244 346.018 13.5201C343.527 13.4477 344.722 12.0726 346.914 11.9278C360.064 10.9868 464.466 11.7104 505.509 12.7238C535.694 13.4477 537.886 13.3755 536.79 11.1315Z" fill="#FFA8A7"/>
</svg>
