<svg width="711" height="35" viewBox="0 0 711 35" fill="none" xmlns="http://www.w3.org/2000/svg">
<path fill-rule="evenodd" clip-rule="evenodd" d="M710.722 11.1315C707.82 7.00541 682.891 5.26805 607.972 3.8203C538.066 2.44494 456.684 -1.53629 314.497 0.635332C205.812 2.30024 70.4831 8.95994 70.4831 12.6517C70.4831 15.33 75.7594 15.4024 126.145 13.0136C172.705 10.842 196.579 10.3353 225.729 9.7562C108.866 15.4024 83.9369 19.094 21.6804 22.641C-17.3617 24.885 5.45684 31.3275 19.702 30.676C19.8339 30.676 201.459 22.5686 218.606 23.0029C220.189 23.0753 202.91 24.3783 180.091 25.8984C116.384 30.2417 128.651 37.4803 176.398 34.1505C337.051 22.9305 488.208 19.4558 604.675 24.3058C641.475 25.8259 645.563 25.8259 645.563 23.9438C645.563 20.614 635.539 18.0806 619.843 17.5739C595.31 16.7052 500.87 14.244 458.135 13.5201C454.837 13.4477 456.42 12.0726 459.322 11.9278C476.733 10.9868 614.963 11.7104 669.305 12.7238C709.271 13.4477 712.173 13.3755 710.722 11.1315Z" fill="#FFA8A7"/>
</svg>
